<svg xmlns="http://www.w3.org/2000/svg" width="477.138" height="674.4" viewBox="0 0 477.138 674.4"><path d="M431.616-94.416q0-26.269,11.767-54.584H281.562v60.485a88.873,88.873,0,0,1,11.8-1.265q7.587-.421,18.546-.421v19.389q-51.423,5.058-86.829,21.918Q187.988-29.5,156.8,9.273,150.053.843,142.467-7.587t-15.174-17.7Q108.747-46.365,89.358-46.365q-18.546,0-37.093,20.232l-14.331-17.7a303.774,303.774,0,0,1,27.4-20.232Q81.77-75.026,103.689-88.515a70.165,70.165,0,0,1,25.29-4.215q38.777,0,69.969,33.719,5.058-3.371,10.959-6.744T222.552-72.5V-149H0v-20H111.608L62.382-206.535,32.877-180.4,19.389-195.576l40.464-37.092V-388.623q-5.9,0-11.381-.422t-10.537-1.264V-409.7q15.174.842,23.6.843H71.655q87.672,0,144.153-59.01l64.067,48.894,23.6-21.919,13.488,15.174-35.406,33.72V-169H452.846a220.62,220.62,0,0,1,12.912-21.1q10.538-15.6,26.555-37.514,72.5-99.473,112.963-186.3-48.894,38.777-95.26,38.777-34.563,0-87.672-19.389l-28.662,61.539-17.7-8.43,59.01-126.45q54.8,41.307,124.764,41.307,47.208,0,65.754-41.307l17.7,6.744q-16.86,59.854-58.167,143.311-13.488,26.132-26.977,51.844T531.09-214.122q-12.126,24.843-20,45.122H674.4v20H504.01q-7.482,23.718-7.483,39.41,0,29.506,24.447,53.952l30.348-29.5L564.81-70.812,482.2,9.273Q431.617-32.033,431.616-94.416ZM222.552-169v-72.941L144.654-169ZM118.863-393.681v148.368l42.993,33.72,60.7-58.167V-382.722l-43.836-32.034Q147.525-393.681,118.863-393.681Z" transform="translate(9.273) rotate(90)" fill="#151617"/></svg>